# Blender v2.77 (sub 0) OBJ File: ''
# www.blender.org
mtllib tetrahedron.mtl
o Cone
v 0.000000 -0.587105 -1.000000
v 0.000000 0.827105 0.000000
v 0.866025 -0.587105 0.500000
v -0.866025 -0.587105 0.500000
vt 0.2500 0.4900
vt 0.2500 0.2500
vt 0.4578 0.1300
vt 0.0422 0.1300
vt 0.7500 0.4900
vt 0.9578 0.1300
vt 0.5422 0.1300
vn 0.8165 0.3333 -0.4714
vn -0.0000 0.3333 0.9428
vn -0.8165 0.3333 -0.4714
vn 0.0000 -1.0000 0.0000
usemtl None
s off
f 1/1/1 2/2/1 3/3/1
f 3/3/2 2/2/2 4/4/2
f 4/4/3 2/2/3 1/1/3
f 1/5/4 3/6/4 4/7/4
