v 1.001702717044001 1.001702717044001 1.001702717044001
v -1.001702717044001 -1.001702717044001 1.001702717044001
v -1.001702717044001 1.001702717044001 -1.001702717044001
v 1.001702717044001 -1.001702717044001 -1.001702717044001
vt 0.625 0.3040867239846964
vt 0.875 0.6959132760153036
vt 0.375 0.6959132760153036
vt 0.125 0.3040867239846964
vt 0.375 0.6959132760153036
vt 0.875 0.6959132760153036
vt 0.125 0.3040867239846964
vt 0.875 0.6959132760153036
vt 0.625 0.3040867239846964
vt 0.125 0.3040867239846964
vt 0.625 0.3040867239846964
vt 0.375 0.6959132760153036
vn -0.5773502691896258 -0.5773502691896258 0.5773502691896258
vn 0.5773502691896258 0.5773502691896258 0.5773502691896258
vn -0.5773502691896258 0.5773502691896258 -0.5773502691896258
vn 0.5773502691896258 -0.5773502691896258 -0.5773502691896258
vn -0.5773502691896258 0.5773502691896258 -0.5773502691896258
vn 0.5773502691896258 0.5773502691896258 0.5773502691896258
vn 0.5773502691896258 -0.5773502691896258 -0.5773502691896258
vn 0.5773502691896258 0.5773502691896258 0.5773502691896258
vn -0.5773502691896258 -0.5773502691896258 0.5773502691896258
vn 0.5773502691896258 -0.5773502691896258 -0.5773502691896258
vn -0.5773502691896258 -0.5773502691896258 0.5773502691896258
vn -0.5773502691896258 0.5773502691896258 -0.5773502691896258
f 2/1/1 1/2/2 3/3/3
f 4/4/4 3/5/5 1/6/6
f 4/7/7 1/8/8 2/9/9
f 4/10/10 2/11/11 3/12/12
